<svg width="72" height="72" viewBox="0 0 72 72" fill="none" xmlns="http://www.w3.org/2000/svg">
<circle cx="36" cy="36" r="36" fill="#1A1D27"/>
<path d="M41.0814 37.4604L43.9945 38.0385C44.0968 39.6755 45.5068 40.9194 47.1438 40.817C48.7807 40.7147 50.0247 39.3047 49.9223 37.6678C49.82 36.0308 48.41 34.7869 46.773 34.8892C45.7118 34.9556 44.7671 35.5842 44.296 36.5375L41.2815 35.9393C41.2489 34.7974 40.807 33.7054 40.0366 32.8619L44.1002 27.1216C45.9819 27.9377 48.1688 27.0738 48.9849 25.1922C49.8009 23.3106 48.9371 21.1236 47.0555 20.3075C45.1739 19.4915 42.9869 20.3553 42.1708 22.2369C41.5853 23.587 41.8522 25.1555 42.8513 26.2359L38.8359 31.9083C36.9148 30.8301 34.5054 31.2073 33.0057 32.8209L27.7439 28.7346C28.4386 27.2451 27.7943 25.4745 26.3049 24.7797C24.8154 24.0849 23.0447 24.7292 22.35 26.2187C21.6552 27.7082 22.2995 29.4788 23.789 30.1736C24.7553 30.6243 25.8889 30.5236 26.7606 29.9096L32.1512 34.0958C31.2853 35.9871 31.7438 38.2215 33.2848 39.6187L30.0558 44.1853C28.1495 43.1226 25.7426 43.8063 24.6799 45.7126C23.6171 47.6188 24.3009 50.0257 26.2071 51.0885C28.1134 52.1512 30.5203 51.4675 31.583 49.5612C32.3622 48.1636 32.2217 46.434 31.227 45.1805L34.5683 40.4547C35.7326 40.9711 37.0551 41.0002 38.2409 40.5354L42.2353 46.4361C41.0138 47.8273 41.1514 49.9453 42.5426 51.1667C43.9338 52.3882 46.0518 52.2506 47.2732 50.8594C48.4947 49.4682 48.3571 47.3502 46.9659 46.1288C46.0094 45.2889 44.6596 45.0633 43.4819 45.5465L39.5611 39.7545C40.2811 39.1547 40.8097 38.3572 41.0814 37.4604ZM46.957 36.4144C47.7511 36.4144 48.3949 37.0582 48.3949 37.8523C48.3949 38.6465 47.7511 39.2903 46.957 39.2903C46.1628 39.2903 45.5191 38.6465 45.5191 37.8523C45.5197 37.0584 46.1632 36.415 46.957 36.4144ZM45.5678 21.549C46.7677 21.5491 47.7404 22.5218 47.7403 23.7217C47.7402 24.9215 46.7675 25.8943 45.5677 25.8942C44.3678 25.8941 43.3952 24.9215 43.3952 23.7216C43.3966 22.5222 44.3685 21.5503 45.5678 21.549ZM25.0523 28.9211C24.2585 28.9201 23.6153 28.2769 23.6144 27.4831C23.6144 26.689 24.2581 26.0452 25.0523 26.0452C25.8464 26.0452 26.4902 26.689 26.4902 27.4831C26.4902 28.2773 25.8465 28.9211 25.0523 28.9211ZM28.1414 50.0381C26.8103 50.038 25.7314 48.959 25.7314 47.628C25.7315 46.2969 26.8105 45.2179 28.1415 45.218C29.4725 45.2181 30.5515 46.2971 30.5515 47.628C30.55 48.9585 29.4718 50.0366 28.1414 50.0381ZM44.7536 46.8269C45.7621 46.828 46.5793 47.6452 46.5804 48.6536C46.5804 49.6626 45.7626 50.4804 44.7536 50.4804C43.7447 50.4804 42.9268 49.6626 42.9268 48.6536C42.9268 47.6447 43.7448 46.8269 44.7536 46.8269ZM36.5014 39.3334C34.7059 39.3314 33.2508 37.8764 33.2488 36.0809C33.2488 34.2846 34.705 32.8283 36.5014 32.8283C38.2977 32.8283 39.7539 34.2846 39.7539 36.0809C39.7539 37.8772 38.2977 39.3334 36.5014 39.3334Z" fill="white"/>
</svg>
